# xmcd CD database file
#
# Track frame offsets:
#	150
#	22597
#	43627
#	58967
#	75997
#	92357
#	103704
#	120337
#	135782
#	146857
#	159240
#	182272
#	203787
#	222630
#	242575
#	266177
#	286057
#	302830
#
# Disc length: 4282 seconds
#
# Revision: 0
# Processed by: cddbd v1.5.1PL2 Copyright (c) Steve Scherf et al.
# Submitted via: CDex 1.50
#
DISCID=e910b812
DTITLE=Claude Nougaro - Nougaro au théatre des champs élysées
DYEAR=2001
DGENRE=Jazz
TTITLE0=Mademoiselle Maman
TTITLE1=Anna
TTITLE2=La chienne
TTITLE3=Le coq et la pendule
TTITLE4=Bidonville
TTITLE5=Une petite fille
TTITLE6=Le cinéma
TTITLE7=Sing Sing song
TTITLE8=Le jazz et la java
TTITLE9=Quatre boules de cuir
TTITLE10=L'île Hélène
TTITLE11=Langue de bois
TTITLE12=Déjeuner sur l'herbe
TTITLE13=Bozambo
TTITLE14=Toulouse
TTITLE15=Les bas
TTITLE16=Armstrong
TTITLE17=Cécile ma fille
EXTD=YEAR: 2001
EXTT0=
EXTT1=
EXTT2=
EXTT3=
EXTT4=
EXTT5=
EXTT6=
EXTT7=
EXTT8=
EXTT9=
EXTT10=
EXTT11=
EXTT12=
EXTT13=
EXTT14=
EXTT15=
EXTT16=
EXTT17=
PLAYORDER=
